<?xml version="1.0" standalone="no"?>
<!DOCTYPE svg PUBLIC "-//W3C//DTD SVG 20010904//EN"
 "http://www.w3.org/TR/2001/REC-SVG-20010904/DTD/svg10.dtd">
<svg version="1.0" xmlns="http://www.w3.org/2000/svg"
 width="1024.000000pt" height="1024.000000pt" viewBox="0 0 1024.000000 1024.000000"
 preserveAspectRatio="xMidYMid meet">

<g transform="translate(0.000000,1024.000000) scale(0.100000,-0.100000)"
fill="#000000" stroke="none">
<path d="M5965 9736 c-318 -82 -829 -369 -1097 -615 l-67 -61 -43 9 c-217 49
-700 63 -946 28 -352 -50 -691 -147 -934 -268 l-99 -48 -102 45 c-373 168
-851 261 -1207 235 -207 -16 -267 -38 -305 -112 -38 -72 1 -382 81 -649 76
-254 208 -549 354 -790 l81 -134 -25 -101 c-47 -185 -60 -287 -60 -490 -1
-286 37 -461 149 -690 71 -146 148 -256 259 -371 41 -43 74 -79 73 -80 -1 -1
-126 20 -277 47 -742 132 -682 124 -784 110 -50 -7 -141 -23 -203 -36 -174
-36 -211 -62 -180 -122 18 -34 66 -69 222 -160 148 -87 211 -119 250 -126 17
-4 235 -43 485 -88 250 -45 456 -83 458 -84 2 -2 -4 -17 -13 -34 l-16 -31
-107 0 c-174 0 -589 -35 -727 -62 -47 -9 -68 -19 -97 -47 -47 -48 -60 -97 -62
-242 l-1 -116 -52 -28 c-96 -50 -203 -190 -203 -266 0 -29 58 -465 181 -1374
28 -203 66 -485 85 -625 19 -140 61 -448 94 -685 123 -880 121 -868 160 -879
8 -3 371 -7 805 -10 1097 -8 1760 -27 2330 -68 149 -11 174 -15 204 -35 139
-94 559 -91 697 5 38 28 48 29 220 40 698 46 1888 88 2729 97 281 4 520 8 532
11 52 10 46 -26 143 829 11 99 31 270 45 380 13 110 28 247 35 305 6 58 13
115 16 128 l5 23 30 -25 c44 -38 70 -41 128 -16 55 24 107 75 117 115 10 41
19 29 38 -48 9 -40 26 -87 36 -105 18 -29 24 -32 68 -32 63 0 183 34 199 56
20 27 17 52 -36 289 -27 121 -63 281 -80 355 -16 74 -69 311 -116 525 -47 215
-90 410 -96 434 -7 31 -7 91 2 205 14 194 7 399 -20 521 -36 169 -113 363
-206 516 -30 51 -55 95 -54 98 0 3 30 20 67 38 478 228 706 1093 428 1620 -58
109 -129 195 -269 326 -140 130 -349 338 -457 454 -118 128 -220 173 -391 173
l-100 0 -77 58 c-228 173 -470 279 -779 339 -123 24 -162 26 -358 27 -186 0
-240 -3 -350 -22 -151 -27 -309 -69 -420 -111 -43 -17 -80 -30 -81 -28 -1 1 7
52 17 112 43 257 48 579 13 844 -31 241 -103 459 -166 504 -33 25 -108 30
-173 13z m154 -161 c59 -158 99 -387 108 -625 8 -230 -7 -402 -64 -717 -3 -17
-11 -34 -18 -37 -7 -2 -36 29 -66 72 -96 136 -317 346 -489 464 -41 28 81 -16
145 -52 52 -30 53 -30 76 -11 20 16 22 22 12 44 -19 40 -157 103 -265 122 -21
3 -38 9 -38 12 0 4 33 56 74 117 81 120 219 297 326 416 37 41 71 86 75 100 4
14 25 48 46 77 22 29 39 57 39 63 0 28 21 4 39 -45z m-1704 -565 c231 -16 513
-74 695 -142 269 -103 553 -288 741 -485 68 -71 189 -222 189 -235 0 -3 -53
-3 -118 0 -213 8 -301 -33 -502 -238 -117 -119 -203 -199 -284 -262 l-22 -16
4 67 c4 72 -9 112 -52 159 -49 54 -134 69 -192 33 -58 -35 -88 -86 -92 -156
-7 -114 57 -193 169 -204 l60 -6 -51 -70 c-178 -245 -266 -594 -239 -937 27
-341 184 -623 411 -739 93 -47 245 -63 328 -34 50 18 60 18 60 5 0 -5 -12 -13
-27 -16 -16 -4 -55 -20 -87 -36 -362 -177 -475 -628 -217 -861 23 -20 46 -37
51 -37 19 0 10 -21 -14 -30 -42 -16 -259 -141 -339 -196 l-78 -54 -78 45
c-123 71 -412 196 -656 284 l-80 28 75 13 c141 23 305 61 328 76 53 35 41 81
-35 129 -32 20 -128 71 -214 115 l-156 79 -209 40 c-115 22 -240 45 -279 51
-101 16 -100 15 -133 83 -84 169 -290 278 -470 249 -81 -14 -193 -67 -253
-121 l-47 -41 -118 21 c-66 11 -135 24 -156 28 -50 12 -172 106 -267 208 -213
227 -326 484 -366 831 l-6 54 28 -6 c164 -33 598 -43 763 -18 241 37 473 131
650 262 96 71 247 232 314 334 228 347 369 864 369 1356 0 165 -6 228 -29 337
-6 30 -5 32 30 38 117 22 395 29 601 15z m-3082 -188 c26 -12 47 -26 47 -31 0
-6 51 -35 113 -65 200 -97 386 -217 544 -349 l73 -61 -48 -28 c-26 -15 -80
-60 -119 -100 -105 -109 -136 -186 -82 -203 25 -8 45 8 69 55 19 38 119 143
152 161 12 6 -2 -20 -35 -68 -118 -170 -233 -388 -295 -557 l-29 -79 -50 84
c-75 123 -184 346 -243 492 -88 222 -164 524 -177 704 -7 94 -16 89 80 45z
m5978 -503 c367 -37 703 -173 947 -383 l53 -45 94 6 c166 11 278 -38 385 -168
105 -127 161 -185 270 -282 310 -274 389 -371 459 -563 106 -291 68 -705 -94
-1011 -113 -214 -288 -366 -465 -404 -221 -47 -423 116 -502 406 -18 66 -21
108 -22 240 0 144 4 182 39 370 35 191 39 225 39 380 0 189 -16 273 -72 383
-26 52 -32 57 -62 57 -52 0 -58 -22 -27 -96 83 -198 87 -367 17 -749 -51 -276
-49 -493 4 -653 l23 -69 -21 7 c-105 30 -201 26 -309 -15 -139 -52 -274 -209
-309 -359 l-11 -51 -106 0 c-119 0 -423 -16 -488 -26 l-43 -6 0 43 c0 36 6 49
30 72 32 31 44 60 38 98 -2 19 -9 24 -33 24 -25 0 -32 -5 -40 -32 -5 -18 -17
-35 -27 -38 -32 -11 -95 14 -127 50 -26 30 -31 44 -31 89 0 103 4 111 69 124
112 23 237 129 266 224 25 84 -5 137 -106 188 -112 57 -272 81 -395 61 -82
-14 -126 -38 -154 -83 -63 -104 36 -294 192 -366 l59 -27 -6 -70 c-4 -38 -13
-80 -21 -92 -20 -32 -69 -55 -112 -51 -34 3 -37 6 -42 38 -4 29 -10 36 -32 38
-23 3 -30 -2 -38 -24 -14 -35 4 -89 34 -109 16 -11 23 -26 25 -57 1 -23 10
-67 21 -97 10 -31 18 -56 17 -57 -1 -1 -95 -20 -208 -43 -113 -23 -220 -46
-237 -51 -18 -4 -34 -5 -36 -1 -3 4 -42 29 -87 56 -156 92 -327 245 -404 361
-22 32 -54 93 -72 134 -95 222 -104 440 -26 703 19 67 40 138 45 157 5 19 13
123 18 230 9 202 31 343 70 459 24 72 72 171 103 212 19 27 19 29 3 53 -21 32
-55 34 -84 3 -34 -36 -108 -204 -136 -307 -36 -136 -46 -208 -56 -424 -8 -178
-11 -199 -44 -306 -58 -184 -69 -262 -65 -449 l4 -164 -40 -15 c-135 -49 -315
16 -432 157 -266 321 -265 949 2 1362 57 89 132 168 250 266 50 42 151 137
225 213 114 116 146 142 205 170 59 28 84 34 158 38 50 3 113 -1 147 -8 58
-12 58 -12 117 23 335 203 782 299 1194 256z m-4163 -103 c15 -8 49 -37 75
-65 75 -81 95 -151 47 -166 -29 -9 -45 3 -120 100 -71 89 -80 111 -58 133 15
15 23 15 56 -2z m-33 -477 c77 -29 155 -102 189 -179 41 -91 40 -187 -3 -274
-37 -75 -92 -128 -170 -164 -45 -21 -70 -26 -131 -25 -140 1 -246 64 -310 185
-29 55 -34 72 -34 138 0 61 5 86 27 135 43 93 126 168 217 196 51 15 158 10
215 -12z m-439 -814 c187 -55 71 -185 -180 -202 -149 -9 -256 25 -256 81 0 47
87 107 183 125 69 14 200 12 253 -4z m4296 -826 c53 -11 78 -24 78 -40 0 -12
-331 -11 -349 0 -59 38 142 67 271 40z m-5842 -390 c0 -19 -35 -204 -46 -242
-5 -16 -14 -13 -82 24 -42 23 -94 54 -115 67 -36 24 -38 28 -32 61 12 68 11
68 98 85 45 9 91 18 102 20 54 10 75 6 75 -15z m382 -55 c106 -19 193 -36 194
-37 2 -1 -5 -45 -15 -97 -10 -52 -21 -112 -25 -132 -5 -29 -12 -38 -26 -38
-19 0 -463 80 -467 84 -3 2 31 190 43 245 6 28 6 28 296 -25z m-732 3 c0 -8
-3 -17 -7 -20 -9 -9 -34 13 -27 24 8 14 34 11 34 -4z m7602 -21 c124 -59 179
-142 186 -281 5 -98 -13 -170 -60 -241 -65 -95 -191 -164 -274 -148 -55 10
-73 34 -67 83 6 47 -8 71 -43 71 -18 0 -29 -11 -46 -47 -26 -54 -47 -62 -109
-44 -71 21 -129 123 -129 226 0 62 27 154 63 214 102 169 316 244 479 167z
m-2793 -43 c41 -81 106 -168 189 -249 39 -38 76 -82 81 -98 19 -47 13 -127
-13 -182 -23 -50 -24 -50 -117 -83 -52 -18 -154 -58 -227 -88 l-132 -55 -45
22 c-57 28 -117 88 -146 148 -28 58 -38 190 -18 260 45 168 206 336 355 371
22 5 40 9 41 10 2 1 16 -25 32 -56z m-2478 -5 c76 -36 130 -86 169 -159 57
-108 52 -253 -12 -340 -29 -39 -52 -37 -77 7 -17 28 -26 35 -48 32 -46 -5 -52
-31 -20 -89 27 -46 28 -52 14 -73 -21 -31 -76 -56 -124 -56 -45 0 -66 18 -98
84 -15 31 -26 41 -44 41 -39 0 -49 -27 -29 -82 13 -36 14 -49 5 -55 -17 -11
-71 -10 -101 2 -43 16 -106 82 -139 144 -30 57 -32 68 -32 161 0 92 3 106 32
167 34 72 104 155 160 189 102 64 242 74 344 27z m-1076 -27 c369 -62 482 -83
494 -90 7 -5 1 -29 -16 -71 -14 -35 -30 -95 -36 -133 l-11 -69 -30 5 c-17 3
-167 31 -334 61 -166 31 -310 56 -320 56 -38 0 -41 11 -22 110 10 52 21 112
24 133 4 20 10 37 14 37 4 0 111 -18 237 -39z m4941 -171 c22 -6 44 -13 50
-15 7 -2 8 -19 5 -46 l-6 -44 -115 -16 c-135 -19 -141 -16 -165 64 -22 74 -20
84 19 91 19 4 49 17 67 29 l34 22 36 -36 c20 -20 54 -42 75 -49z m1810 -16
c37 -8 89 -14 116 -13 l49 3 45 -68 c66 -98 158 -288 188 -386 38 -129 66
-264 66 -322 l-1 -53 -13 31 c-8 18 -19 57 -26 88 -6 31 -15 56 -20 56 -5 0
-17 3 -27 7 -10 3 -15 3 -11 -2 17 -18 -23 -35 -86 -35 -35 0 -77 -5 -92 -10
-20 -8 -29 -8 -35 1 -8 14 -29 113 -32 154 -2 29 -1 29 68 41 39 7 85 10 103
7 43 -7 62 10 53 45 -5 17 -15 28 -29 30 -21 3 -177 -23 -207 -34 -11 -5 -15
1 -15 24 0 62 -22 134 -51 167 -18 20 -58 45 -102 63 -68 29 -72 32 -67 59 3
15 5 65 5 109 l0 82 27 -14 c15 -8 57 -21 94 -30z m-4943 -144 c95 -18 117
-25 117 -39 0 -18 -40 -244 -44 -248 -1 -2 -49 6 -107 16 -57 11 -171 31 -254
46 -82 14 -162 28 -177 31 l-27 5 19 32 c24 41 50 140 50 192 l0 41 153 -27
c83 -16 205 -38 270 -49z m3909 -57 c11 -66 42 -128 88 -171 57 -56 113 -76
194 -70 51 4 66 2 70 -9 3 -8 27 -23 52 -35 65 -28 167 -22 247 14 61 29 154
110 188 165 24 38 39 37 121 -3 38 -19 49 -31 57 -61 16 -55 14 -123 -2 -123
-8 0 -24 -11 -37 -25 -14 -15 -18 -25 -11 -25 10 0 10 -4 3 -12 -5 -7 -7 -27
-5 -45 5 -30 6 -31 32 -20 14 6 29 16 33 22 11 15 15 5 33 -80 10 -44 20 -90
22 -102 3 -13 -3 -29 -14 -40 -19 -19 -25 -19 -94 -7 -233 40 -726 74 -1069
74 -489 0 -880 -40 -1430 -146 -361 -69 -970 -224 -1027 -260 -27 -17 -31 -65
-8 -84 17 -14 27 -12 145 24 149 47 579 154 780 195 360 73 699 123 1030 153
215 19 824 16 1085 -5 276 -23 551 -53 567 -64 7 -4 15 -8 18 -9 3 0 17 -6 32
-14 20 -9 31 -10 40 -2 9 7 28 7 58 2 25 -5 48 -9 53 -10 4 0 7 -6 7 -14 0 -8
6 -17 13 -20 9 -3 7 -9 -6 -19 -12 -10 -14 -17 -8 -22 6 -3 11 -15 11 -26 0
-10 4 -19 9 -19 5 0 12 -27 16 -60 4 -33 11 -60 16 -60 5 0 9 -5 9 -10 0 -6
17 -27 39 -48 55 -53 74 -96 75 -169 1 -72 -17 -104 -80 -141 -55 -32 -137
-27 -170 11 -26 30 -44 86 -44 135 0 30 -2 33 -27 30 -28 -3 -28 -4 -26 -68 3
-52 8 -73 30 -104 43 -60 74 -78 145 -85 59 -6 63 -8 62 -31 -1 -52 -29 -299
-154 -1390 -71 -619 -135 -1177 -142 -1240 l-13 -115 -525 -7 c-947 -12 -1797
-42 -2660 -94 l-265 -16 -31 -30 c-38 -36 -93 -53 -219 -68 -159 -19 -296 0
-385 54 l-55 33 -235 17 c-606 43 -1471 66 -2471 66 l-576 0 -12 93 c-20 157
-29 222 -76 547 -25 173 -66 464 -90 645 -24 182 -54 398 -65 480 -12 83 -39
283 -60 445 -22 162 -66 493 -99 734 -33 242 -59 441 -57 443 11 11 593 64
916 84 263 16 863 17 1085 1 445 -31 907 -92 1305 -172 135 -27 260 -54 279
-59 55 -17 90 14 71 63 -11 30 -24 34 -281 86 -809 164 -1586 227 -2334 190
-221 -11 -564 -36 -694 -50 -46 -5 -88 -7 -92 -4 -17 10 -9 32 14 38 43 10
351 45 465 52 90 5 114 10 122 23 5 10 5 23 0 31 -11 18 -255 7 -445 -20 -77
-11 -145 -20 -151 -20 -15 0 -27 253 -16 338 13 98 18 100 262 126 340 36 800
55 1011 42 l116 -8 17 -34 c25 -54 102 -130 159 -159 59 -29 150 -34 197 -10
23 12 38 13 83 4 86 -17 157 7 226 78 l54 55 51 -6 c93 -13 373 -76 493 -112
388 -117 943 -352 943 -399 0 -15 37 -45 56 -45 6 0 37 21 70 48 121 97 382
240 629 344 634 268 1457 439 2090 434 l159 -1 8 -42z m-1662 -73 c0 -6 -132
-42 -134 -38 -1 2 0 31 2 65 l4 62 64 -42 c35 -23 64 -44 64 -47z m-3819 22
c-68 -1 -126 -1 -128 2 -3 2 -2 13 1 23 6 19 9 19 129 -1 l122 -21 -124 -3z
m1920 -17 c73 -37 129 -71 127 -77 -3 -7 -18 -16 -34 -20 -29 -8 -268 -47
-271 -45 -3 3 40 207 44 207 2 0 62 -29 134 -65z m4987 -526 c1 -24 22 -136
47 -249 24 -113 58 -277 75 -365 18 -88 43 -207 56 -264 13 -57 22 -107 18
-110 -9 -9 -194 -49 -198 -42 -2 3 -11 43 -20 88 l-17 81 44 45 c60 59 81 123
68 203 -13 81 -24 107 -60 137 -32 27 -52 71 -65 142 -7 37 -16 55 -73 156
-11 19 -24 51 -28 70 -4 19 -14 43 -21 54 -8 11 -14 29 -14 41 0 19 7 22 58
28 31 4 68 13 82 20 37 20 45 14 48 -35z m-241 -55 c-3 -3 -17 -4 -32 -2 l-27
3 23 29 23 29 9 -27 c5 -15 7 -30 4 -32z m-7898 -53 l2 -70 -48 -6 c-26 -3
-63 -8 -80 -11 -18 -3 -33 -2 -33 2 0 30 117 154 145 154 8 0 13 -23 14 -69z
m8366 -973 c4 -18 18 -78 31 -132 13 -55 23 -100 22 -101 -4 -3 -192 -45 -199
-45 -9 0 -73 259 -66 266 5 6 158 40 189 43 11 1 19 -10 23 -31z m-215 -253
c16 -60 47 -191 70 -290 23 -99 44 -189 47 -200 4 -17 0 -15 -25 9 -19 17 -37
26 -46 23 -22 -9 -20 -25 9 -59 31 -37 48 -98 36 -130 -5 -13 -25 -39 -45 -56
-48 -42 -97 -43 -145 -3 l-34 28 42 389 c24 214 46 403 49 419 6 29 7 29 10 5
2 -14 17 -74 32 -135z m280 -50 c0 -2 36 -159 80 -349 44 -189 80 -349 80
-355 0 -10 -73 -34 -141 -45 -24 -4 -40 -2 -46 6 -6 7 -24 74 -41 148 -54 239
-100 433 -116 495 -8 32 -13 61 -11 63 5 5 155 40 178 41 9 1 17 -1 17 -4z"/>
<path d="M4057 7304 c-4 -4 -7 -31 -7 -60 0 -99 -62 -218 -140 -270 -72 -48
-174 -42 -198 12 -13 28 -47 32 -61 6 -16 -30 12 -78 60 -103 37 -18 54 -21
116 -16 65 5 73 4 73 -12 0 -25 43 -148 70 -201 35 -68 61 -100 105 -125 55
-31 89 -37 135 -25 109 29 164 147 173 370 l3 75 36 6 c98 16 174 114 130 169
-23 29 -50 17 -58 -26 -9 -50 -45 -74 -111 -74 -107 0 -214 92 -253 217 -14
48 -22 59 -42 61 -13 2 -27 0 -31 -4z m204 -325 l51 -24 -5 -100 c-7 -125 -29
-199 -72 -242 -84 -84 -182 -5 -246 198 l-31 96 49 50 c27 28 60 75 74 105
l23 54 53 -56 c31 -34 73 -67 104 -81z"/>
<path d="M4460 7237 c-47 -24 -28 -56 25 -43 16 4 25 13 25 25 0 25 -21 32
-50 18z"/>
<path d="M3661 7111 c-20 -13 -6 -41 21 -42 36 -2 52 2 60 14 17 28 -46 50
-81 28z"/>
<path d="M6403 7365 c-45 -32 -22 -78 45 -89 28 -4 55 -20 91 -52 47 -42 54
-46 77 -36 55 26 18 105 -73 154 -65 36 -112 43 -140 23z"/>
<path d="M7643 7231 c-76 -26 -123 -65 -123 -102 0 -21 7 -32 23 -40 19 -9 32
-5 75 21 31 20 69 34 99 37 76 9 103 43 63 83 -25 25 -68 25 -137 1z"/>
<path d="M6320 6948 c-48 -33 -72 -70 -77 -120 -14 -125 124 -219 231 -156
106 62 101 230 -7 282 -50 23 -107 21 -147 -6z"/>
<path d="M7639 6861 c-99 -31 -148 -142 -100 -231 54 -103 190 -108 263 -10
47 64 27 171 -41 215 -43 27 -86 37 -122 26z"/>
<path d="M2963 7591 c-140 -102 -91 -336 75 -358 114 -15 217 100 197 221 -24
140 -167 213 -272 137z"/>
<path d="M7310 4909 c-235 -13 -469 -44 -830 -108 -28 -5 -36 -11 -38 -33 -2
-19 2 -28 17 -33 12 -3 24 -4 29 -1 15 9 446 75 592 91 321 34 692 30 1001
-10 128 -17 384 -62 421 -74 36 -12 68 10 52 35 -16 26 -27 30 -184 58 -439
77 -696 95 -1060 75z"/>
<path d="M1870 4799 c-186 -14 -554 -61 -568 -72 -7 -6 -12 -20 -10 -31 4 -27
30 -27 248 2 278 37 404 45 705 45 312 0 458 -10 740 -50 224 -32 215 -31 229
-11 20 32 -12 46 -157 67 -284 43 -407 53 -742 56 -181 2 -382 -1 -445 -6z"/>
<path d="M5900 4694 c-157 -44 -326 -100 -455 -152 -219 -88 -246 -105 -212
-139 14 -14 27 -10 134 35 65 28 168 69 228 91 122 45 416 131 445 131 26 0
45 36 29 56 -16 19 -26 18 -169 -22z"/>
<path d="M3537 4676 c-11 -27 3 -45 41 -52 147 -24 584 -147 672 -187 9 -4 24
-1 35 7 38 28 7 48 -156 103 -160 53 -453 130 -538 140 -38 4 -49 2 -54 -11z"/>
<path d="M4641 4218 c-28 -10 -38 -55 -17 -76 21 -21 114 -31 304 -31 139 -1
154 1 172 19 24 24 25 43 4 64 -13 13 -44 16 -172 17 -86 0 -183 4 -214 8 -31
4 -66 4 -77 -1z"/>
<path d="M7016 4158 c-66 -18 -114 -78 -170 -214 -95 -228 -208 -478 -302
-666 -68 -137 -94 -200 -94 -227 0 -54 38 -121 88 -156 40 -27 51 -30 126 -30
76 0 86 2 120 29 44 33 98 114 185 276 59 109 62 113 57 70 -11 -94 -18 -1053
-8 -1237 8 -178 11 -194 35 -235 51 -88 178 -121 274 -70 81 42 108 112 97
251 l-7 89 29 5 c16 3 155 25 308 49 215 33 286 47 309 63 92 62 105 187 27
265 -67 67 -81 67 -392 15 -149 -25 -275 -45 -280 -45 -4 0 -8 63 -8 140 l0
139 33 5 c17 3 127 19 242 36 149 22 223 38 254 53 125 63 116 244 -15 307
l-47 23 -211 -37 c-116 -20 -221 -39 -233 -42 l-23 -6 0 166 c0 124 3 168 13
171 12 5 199 29 470 60 71 9 142 22 157 30 65 34 101 117 86 199 -9 49 -70
110 -124 127 -51 15 -170 2 -581 -62 -140 -21 -256 -37 -258 -35 -3 2 12 48
32 100 55 149 68 208 55 256 -27 101 -142 166 -244 138z"/>
<path d="M6321 4085 c-58 -18 -79 -39 -167 -173 -102 -154 -344 -489 -468
-645 -146 -185 -156 -202 -156 -258 0 -85 38 -144 115 -180 101 -47 182 -8
297 140 27 35 27 35 32 10 2 -13 10 -186 16 -384 13 -447 28 -743 41 -815 18
-107 105 -174 216 -168 80 5 137 42 171 110 24 47 24 48 12 210 -6 90 -24 393
-39 673 -23 415 -32 518 -46 553 -20 49 -84 108 -126 117 -16 4 -29 9 -29 12
0 3 38 56 84 117 102 135 217 310 259 391 53 105 32 206 -58 266 -49 33 -97
41 -154 24z"/>
<path d="M3440 4019 c-479 -38 -854 -100 -1332 -220 -64 -16 -124 -29 -132
-29 -9 0 -22 13 -31 30 -8 16 -35 41 -60 56 -73 42 -163 33 -229 -25 -29 -26
-56 -87 -56 -129 0 -82 81 -606 100 -641 63 -124 232 -149 332 -49 62 62 66
93 35 276 -15 86 -27 162 -27 168 0 6 39 16 88 23 48 7 169 28 269 47 282 53
794 124 1086 149 l77 7 0 -144 c0 -176 13 -230 68 -280 73 -66 178 -73 264
-19 79 50 83 68 83 356 0 237 -1 252 -22 290 -28 53 -78 99 -133 124 -38 17
-64 20 -160 19 -63 0 -162 -5 -220 -9z"/>
<path d="M4574 3969 c-12 -4 -24 -14 -27 -23 -4 -9 0 -181 8 -383 8 -203 21
-561 30 -798 55 -1537 70 -1852 87 -1872 15 -18 54 -16 73 4 15 14 16 31 11
117 -9 144 -33 754 -51 1281 -35 1037 -60 1631 -70 1658 -8 19 -35 26 -61 16z"/>
<path d="M5070 3885 c-10 -12 -11 -127 -6 -553 7 -528 8 -537 28 -555 18 -15
23 -16 42 -4 l21 15 -4 538 c-2 297 -8 547 -13 557 -11 21 -51 22 -68 2z"/>
<path d="M2401 3444 c-55 -28 -90 -71 -109 -134 -13 -41 -86 -483 -103 -616
-10 -77 -9 -99 5 -146 32 -110 110 -180 222 -198 47 -8 103 -4 293 21 409 53
462 58 625 65 l159 7 -6 -204 c-3 -112 -13 -242 -21 -289 -13 -77 -26 -138
-30 -141 0 -1 -87 -6 -192 -13 -183 -11 -193 -13 -227 -38 -72 -56 -89 -159
-38 -239 45 -72 70 -79 273 -79 192 0 324 12 395 36 128 44 197 135 223 298
18 113 40 436 40 586 0 185 -16 237 -94 315 -101 100 -184 121 -459 112 -176
-5 -436 -33 -677 -71 -47 -8 -87 -13 -89 -11 -3 4 16 127 21 129 2 1 161 33
353 70 193 38 372 73 398 78 80 16 147 94 147 170 -1 78 -64 158 -141 178 -37
10 -75 4 -363 -60 -176 -40 -324 -74 -329 -77 -4 -2 -4 20 -1 50 9 77 -2 121
-39 164 -60 69 -145 82 -236 37z"/>
<path d="M5091 2626 c-8 -9 -11 -52 -9 -126 3 -95 6 -115 21 -124 12 -8 22 -8
35 0 25 16 31 224 7 248 -20 20 -39 20 -54 2z"/>
<path d="M3050 2279 c-47 -10 -200 -44 -340 -75 -365 -80 -796 -189 -825 -208
-53 -35 -80 -135 -54 -203 13 -34 55 -80 91 -99 49 -26 121 -15 450 65 291 72
472 112 773 172 106 21 137 37 171 87 62 91 23 216 -81 263 -49 23 -77 22
-185 -2z"/>
<path d="M5100 2175 c-15 -18 6 -1243 22 -1262 15 -18 55 -16 66 3 5 9 7 98 5
198 -2 99 -8 378 -12 619 -6 367 -9 440 -21 448 -22 13 -46 11 -60 -6z"/>
<path d="M4008 1353 c-87 -6 -98 -25 -98 -168 0 -147 9 -161 101 -158 129 4
140 19 128 187 -8 112 -23 148 -58 144 -9 -1 -42 -3 -73 -5z m46 -114 c3 -17
6 -53 6 -80 l0 -49 -35 0 -35 0 0 73 c0 80 3 87 35 87 17 0 24 -8 29 -31z"/>
<path d="M4197 1342 c-23 -25 -34 -107 -17 -127 15 -18 51 -20 68 -3 7 7 12
25 12 40 0 18 5 28 15 28 12 0 15 -16 15 -84 l0 -85 -41 -3 c-83 -6 -79 -71 4
-76 62 -4 102 18 117 64 17 51 5 222 -17 247 -23 25 -133 24 -156 -1z"/>
</g>
</svg>
